<svg xmlns="http://www.w3.org/2000/svg" width="40" height="108" viewBox="0 0 40 108">
  <!-- Dueño · pierna (vaquero oscuro + zapatilla). Pivote arriba (cadera). -->
  <defs>
    <linearGradient id="olJeans" x1="0" y1="0" x2="1" y2="0.4">
      <stop offset="0" stop-color="#3b4049"/>
      <stop offset="0.6" stop-color="#262a31"/>
      <stop offset="1" stop-color="#171a1f"/>
    </linearGradient>
  </defs>
  <path d="M8 6 C8 1 34 1 34 7 C34 30 31 56 29 78 C28 86 28 90 28 92 C28 97 8 97 8 92 C8 70 7 34 8 6Z"
        fill="url(#olJeans)" stroke="#111318" stroke-width="4.5" stroke-linejoin="round"/>
  <path d="M12 16 C12 44 11 68 12 88" fill="none" stroke="#4d545f" stroke-width="3" stroke-linecap="round" opacity="0.6"/>
  <path d="M7 90 C7 86 29 86 29 90 C33 92 38 96 38 100 C38 104 30 105 20 105 C10 105 6 104 6 100 C6 96 7 92 7 90Z"
        fill="#efe6d6" stroke="#8d8272" stroke-width="3.5" stroke-linejoin="round"/>
  <path d="M6 100 C14 103 30 103 38 100 C38 104 30 105 20 105 C10 105 6 104 6 100Z" fill="#c9bda9"/>
</svg>
