<svg xmlns="http://www.w3.org/2000/svg" width="88" height="122" viewBox="0 0 88 122">
  <!-- Ratón · pata trasera: muslo redondeado, corvejón marcado y pie blanco. Pivote arriba-derecha (cadera). -->
  <defs>
    <linearGradient id="rlbFur" x1="0.2" y1="0" x2="0.8" y2="1">
      <stop offset="0" stop-color="#3f342e"/>
      <stop offset="0.5" stop-color="#261e18"/>
      <stop offset="1" stop-color="#120e0c"/>
    </linearGradient>
    <linearGradient id="rlbSock" x1="0.1" y1="0" x2="0.9" y2="1">
      <stop offset="0" stop-color="#f8f1e5"/>
      <stop offset="1" stop-color="#cebda3"/>
    </linearGradient>
  </defs>

  <path d="M66 10 C80 22 82 50 70 70 C64 80 58 86 55 94 C53 102 53 108 54 112 C58 116 57 120 51 120 C43 121 33 121 28 119 C23 117 24 112 28 109 C29 96 33 84 40 73 C27 74 15 66 10 52 C3 32 16 10 36 5 C48 2 59 4 66 10Z"
        fill="url(#rlbFur)" stroke="#0f0b0a" stroke-width="4.5" stroke-linejoin="round"/>

  <path d="M29 94 C36 89 50 89 54 95 C53 102 53 108 54 112 C58 116 57 120 51 120 C43 121 33 121 28 119 C23 117 24 112 28 109 C28 103 28 98 29 94Z"
        fill="url(#rlbSock)" stroke="#0f0b0a" stroke-width="4.5" stroke-linejoin="round"/>
  <g stroke="#b6a488" stroke-width="2.3" stroke-linecap="round">
    <path d="M34 108 l0 9"/><path d="M41 107 l0 10"/><path d="M48 108 l0 9"/>
  </g>

  <path d="M62 18 C73 32 73 54 63 68" fill="none" stroke="#5a4c44" stroke-width="4" stroke-linecap="round" opacity="0.5"/>
  <path d="M22 30 C16 40 17 52 24 60" fill="none" stroke="#0f0b0a" stroke-width="3" stroke-linecap="round" opacity="0.35"/>
</svg>
