<svg xmlns="http://www.w3.org/2000/svg" width="108" height="132" viewBox="0 0 108 132">
  <!--
    Ratón · oreja gigante: triángulo ancho de base y con la punta marcada, como
    en la foto. Va DETRÁS del cuerpo, así que la base queda oculta bajo la
    cabeza. Pivote en la base (abajo-centro).
  -->
  <defs>
    <linearGradient id="reFur" x1="0.15" y1="0" x2="0.85" y2="1">
      <stop offset="0" stop-color="#41362f"/>
      <stop offset="0.5" stop-color="#251d17"/>
      <stop offset="1" stop-color="#120e0c"/>
    </linearGradient>
    <linearGradient id="reIn" x1="0.25" y1="0" x2="0.75" y2="1">
      <stop offset="0" stop-color="#9c736d"/>
      <stop offset="0.55" stop-color="#6d4b46"/>
      <stop offset="1" stop-color="#3e2828"/>
    </linearGradient>
  </defs>

  <path d="M50 128 C26 120 12 92 12 58 C12 30 22 8 38 8 C50 8 62 26 74 56 C86 84 94 106 92 118 C90 128 74 133 50 128Z"
        fill="url(#reFur)" stroke="#0f0b0a" stroke-width="5" stroke-linejoin="round"/>

  <path d="M52 114 C34 106 25 84 25 58 C25 36 32 22 41 24 C50 26 60 44 68 66 C77 90 82 106 79 112 C76 118 64 118 52 114Z"
        fill="url(#reIn)"/>

  <g stroke="#b8908a" stroke-width="2.2" stroke-linecap="round" opacity="0.4">
    <path d="M36 50 l10 7"/><path d="M42 72 l10 6"/><path d="M50 92 l10 6"/>
  </g>

  <path d="M38 8 C50 10 62 30 74 58" fill="none" stroke="#6a5b52" stroke-width="4.5" stroke-linecap="round" opacity="0.55"/>
</svg>
