<svg xmlns="http://www.w3.org/2000/svg" width="72" height="112" viewBox="0 0 72 112">
  <!-- Ratón · cola. Pivote en la base (abajo-izquierda). -->
  <defs>
    <linearGradient id="rtFur" x1="0" y1="1" x2="1" y2="0">
      <stop offset="0" stop-color="#251e1b"/>
      <stop offset="0.7" stop-color="#332b27"/>
      <stop offset="1" stop-color="#1a1513"/>
    </linearGradient>
  </defs>
  <path d="M14 108 C4 84 8 54 24 32 C36 16 54 8 64 12 C70 15 70 24 62 30 C46 42 32 60 28 82 C26 94 26 102 26 110 C22 112 16 112 14 108Z"
        fill="url(#rtFur)" stroke="#100c0b" stroke-width="5" stroke-linejoin="round"/>
  <path d="M22 96 C22 70 30 48 46 32" fill="none" stroke="#4e433e" stroke-width="4" stroke-linecap="round" opacity="0.6"/>
  <path d="M64 12 C70 15 70 24 62 30 C58 26 58 16 64 12Z" fill="#e9dcc7" opacity="0.85"/>
</svg>
