<svg xmlns="http://www.w3.org/2000/svg" width="182" height="98" viewBox="0 0 182 98">
  <!-- Bici de carretera (ruedas aparte en 34,62 y 146,62). Mira a la DERECHA. -->
  <defs>
    <linearGradient id="brF" x1="0" y1="0" x2="1" y2="1">
      <stop offset="0" stop-color="#f0784f"/>
      <stop offset="1" stop-color="#b93f2c"/>
    </linearGradient>
  </defs>
  <g stroke="url(#brF)" stroke-width="7" stroke-linecap="round" fill="none">
    <path d="M34 62 L74 62"/>
    <path d="M34 62 L66 26"/>
    <path d="M66 26 L74 62"/>
    <path d="M66 26 L126 24"/>
    <path d="M74 62 L128 24"/>
    <path d="M128 24 L146 62"/>
  </g>
  <g stroke="#7d2a1c" stroke-width="2" fill="none" opacity="0.5">
    <path d="M36 59 L72 59"/><path d="M68 29 L124 27"/>
  </g>
  <!-- horquilla fina -->
  <path d="M128 24 L146 62" stroke="#d8d3ca" stroke-width="4" stroke-linecap="round"/>
  <!-- manillar de carretera -->
  <path d="M128 24 L130 14" stroke="#3c3833" stroke-width="5" stroke-linecap="round"/>
  <path d="M130 14 L112 14" stroke="#3c3833" stroke-width="5" stroke-linecap="round"/>
  <path d="M112 14 C104 14 102 24 108 30 C112 34 118 34 120 30" fill="none" stroke="#3c3833" stroke-width="5" stroke-linecap="round"/>
  <!-- sillín alto -->
  <path d="M66 26 L64 10" stroke="#3c3833" stroke-width="5" stroke-linecap="round"/>
  <path d="M50 10 C52 5 78 6 76 11 C74 15 52 15 50 10Z" fill="#1f1b18" stroke="#100d0b" stroke-width="2.6"/>
  <!-- bidón -->
  <rect x="70" y="38" width="11" height="22" rx="3" fill="#5fa9b8" stroke="#2f6672" stroke-width="2.5" transform="rotate(-16 75 49)"/>
  <!-- plato -->
  <circle cx="74" cy="62" r="13" fill="none" stroke="#a8a49c" stroke-width="3.5"/>
  <circle cx="74" cy="62" r="3.6" fill="#5c5852"/>
</svg>
