<svg xmlns="http://www.w3.org/2000/svg" width="120" height="170" viewBox="0 0 120 170">
  <defs>
    <linearGradient id="plPot" x1="0" y1="0" x2="1" y2="0">
      <stop offset="0" stop-color="#d08a5c"/>
      <stop offset="0.45" stop-color="#b06e43"/>
      <stop offset="1" stop-color="#82492a"/>
    </linearGradient>
    <linearGradient id="plLeaf" x1="0" y1="0" x2="1" y2="1">
      <stop offset="0" stop-color="#88a86a"/>
      <stop offset="1" stop-color="#4e6d42"/>
    </linearGradient>
  </defs>
  <g fill="url(#plLeaf)" stroke="#33492c" stroke-width="3" stroke-linejoin="round">
    <path d="M60 108 C34 100 18 74 22 48 C46 52 62 76 60 108Z"/>
    <path d="M60 108 C86 100 102 74 98 48 C74 52 58 76 60 108Z"/>
    <path d="M60 104 C48 78 52 44 68 22 C84 44 82 82 60 104Z"/>
    <path d="M60 110 C40 112 22 100 14 84 C34 78 54 90 60 110Z"/>
    <path d="M60 110 C80 112 98 100 106 84 C86 78 66 90 60 110Z"/>
  </g>
  <g stroke="#3d5735" stroke-width="2.4" fill="none" opacity="0.85">
    <path d="M60 106 C50 88 42 68 26 52"/><path d="M60 106 C70 88 78 68 94 52"/>
    <path d="M60 104 C58 78 60 48 67 26"/>
  </g>
  <path d="M28 112 L92 112 L84 162 C84 166 36 166 36 162Z" fill="url(#plPot)" stroke="#5f3418" stroke-width="4" stroke-linejoin="round"/>
  <rect x="24" y="104" width="72" height="16" rx="5" fill="#c07c4f" stroke="#5f3418" stroke-width="4"/>
  <path d="M40 120 C42 140 44 152 46 160" stroke="#8d5530" stroke-width="4" fill="none" opacity="0.6" stroke-linecap="round"/>
</svg>
